# xmcd
#
# Track frame offsets: 
#        182
#        13172
#        26485
#        39372
#        52367
#        64235
#        76707
#        89987
#        103467
#        114920
#        129770
#        141602
#        153377
#        163437
#        181957
#        190392
#
# Disc length: 2714 seconds
#
# Revision: 0
# Processed by: cddbd v1.5.2PL0 Copyright (c) Steve Scherf et al.
# Submitted via: ExactAudioCopy v0.90b4
#
DISCID=e90a9810
DTITLE=Various Artist - 16 All Time Blues Hits - CD 8
DYEAR=1991
DGENRE=Blues
TTITLE0=James. Elmore - Dust My Broom
TTITLE1=Howlin' Wolf - Tail Dragger
TTITLE2=Waters, Muddy - I Just Want To Make Love To You
TTITLE3=Little Walter - Roller Coaster
TTITLE4=Mayall, John - Lost And Gone
TTITLE5=Hooker, John Lee - Trouble Blues
TTITLE6=Williamson, Sonny Boy - Sad To Be Alone
TTITLE7=King, B. B. -Three O'Clock Blues
TTITLE8=Williamson, Sonny Boy - Stop Crying
TTITLE9=Waters, Muddy - Walkin' Thru The Park
TTITLE10=Memphis Slim - Really Got The Blues
TTITLE11=James, Elmore - Pickin' The Blues
TTITLE12=Hooker, John Lee - Want Ad Blues
TTITLE13=Bloomfield, Mike - Vamp In C
TTITLE14=Williams, Big Joe - Goin' Away, Won't Be Back 'Till Fall
TTITLE15=Leadbelly - Backwater Blues
EXTD=All Time Music\nATM 071\n\n10 CD-Set Blues Sampler
EXTT0=
EXTT1=
EXTT2=
EXTT3=
EXTT4=
EXTT5=
EXTT6=
EXTT7=
EXTT8=
EXTT9=
EXTT10=
EXTT11=
EXTT12=
EXTT13=
EXTT14=
EXTT15=
PLAYORDER=
